<?xml version="1.0" encoding="UTF-8" standalone="no"?>
<svg
   xmlns:dc="http://purl.org/dc/elements/1.1/"
   xmlns:cc="http://creativecommons.org/ns#"
   xmlns:rdf="http://www.w3.org/1999/02/22-rdf-syntax-ns#"
   xmlns:svg="http://www.w3.org/2000/svg"
   xmlns="http://www.w3.org/2000/svg"
   xmlns:sodipodi="http://sodipodi.sourceforge.net/DTD/sodipodi-0.dtd"
   xmlns:inkscape="http://www.inkscape.org/namespaces/inkscape"
   height="64px"
   id="ICONS"
   style="enable-background:new 0 0 64 64;"
   version="1.1"
   viewBox="0 0 64 64"
   width="64px"
   xml:space="preserve"
   sodipodi:docname="calendar.svg"
   inkscape:version="0.92.3 (2405546, 2018-03-11)"><metadata
   id="metadata25"><rdf:RDF><cc:Work
       rdf:about=""><dc:format>image/svg+xml</dc:format><dc:type
         rdf:resource="http://purl.org/dc/dcmitype/StillImage" /></cc:Work></rdf:RDF></metadata><defs
   id="defs23" /><sodipodi:namedview
   pagecolor="#ffffff"
   bordercolor="#666666"
   borderopacity="1"
   objecttolerance="10"
   gridtolerance="10"
   guidetolerance="10"
   inkscape:pageopacity="0"
   inkscape:pageshadow="2"
   inkscape:window-width="1366"
   inkscape:window-height="695"
   id="namedview21"
   showgrid="false"
   inkscape:zoom="3.6875"
   inkscape:cx="32"
   inkscape:cy="32"
   inkscape:window-x="0"
   inkscape:window-y="0"
   inkscape:window-maximized="1"
   inkscape:current-layer="ICONS" />
    <g
   id="g18"
   transform="matrix(1.3222582,0,0,1.3222582,-10.312262,-10.312262)">
        <g
   id="g6">
            <path
   d="m 21.701,41.179 c 0,-0.444 0.107,-0.751 0.322,-0.92 0.214,-0.168 0.582,-0.253 1.104,-0.253 0.598,0 1.003,0.081 1.218,0.241 0.214,0.161 0.322,0.434 0.322,0.816 0,0.521 0.214,0.931 0.644,1.23 0.429,0.299 1.011,0.448 1.747,0.448 0.858,0 1.483,-0.196 1.874,-0.587 0.391,-0.391 0.586,-1.022 0.586,-1.896 v -0.437 c 0,-1.456 -0.843,-2.185 -2.529,-2.185 -0.583,0 -0.874,-0.391 -0.874,-1.172 0,-0.781 0.296,-1.173 0.89,-1.173 0.668,0 1.186,-0.148 1.551,-0.445 0.365,-0.298 0.548,-0.896 0.548,-1.795 0,-1.342 -0.675,-2.013 -2.023,-2.013 -1.364,0 -2.046,0.511 -2.046,1.532 0,0.763 -0.476,1.144 -1.426,1.144 -0.644,0 -1.061,-0.088 -1.253,-0.263 -0.191,-0.176 -0.287,-0.515 -0.287,-1.018 0,-0.446 0.084,-0.889 0.253,-1.327 0.168,-0.438 0.433,-0.865 0.793,-1.281 0.36,-0.415 0.885,-0.754 1.575,-1.016 0.69,-0.262 1.495,-0.392 2.414,-0.392 3.249,0 4.873,1.376 4.873,4.129 0,0.916 -0.158,1.714 -0.475,2.394 -0.318,0.68 -0.763,1.149 -1.335,1.408 1.56,0.613 2.339,1.771 2.339,3.472 v 0.437 c 0,1.747 -0.51,3.035 -1.529,3.862 -1.02,0.828 -2.349,1.241 -3.989,1.241 -1.732,0 -3.046,-0.429 -3.942,-1.287 -0.896,-0.858 -1.345,-1.822 -1.345,-2.894 z"
   style="fill:#202020"
   id="path2"
   inkscape:connector-curvature="0" />
            <path
   d="m 35.402,32.58 c -0.184,-0.244 -0.275,-0.521 -0.275,-0.827 0,-0.475 0.191,-0.835 0.574,-1.08 l 2.713,-2.069 c 0.184,-0.153 0.391,-0.23 0.621,-0.23 0.337,0 0.644,0.093 0.919,0.276 0.276,0.184 0.414,0.414 0.414,0.689 v 14.943 c 0,0.291 -0.149,0.521 -0.448,0.689 -0.299,0.169 -0.647,0.253 -1.046,0.253 -0.414,0 -0.767,-0.084 -1.058,-0.253 -0.291,-0.168 -0.437,-0.398 -0.437,-0.689 V 32.006 l -0.736,0.735 c -0.153,0.139 -0.337,0.207 -0.552,0.207 -0.275,0 -0.505,-0.122 -0.689,-0.368 z"
   style="fill:#202020"
   id="path4"
   inkscape:connector-curvature="0" />
        </g>
        <g
   id="g16">
            <path
   d="m 51,50 c 0,2.209 -1.791,4 -4,4 H 17 c -2.209,0 -4,-1.791 -4,-4 V 14 h 38 z"
   style="fill:none;stroke:#202020;stroke-width:2;stroke-linecap:round;stroke-linejoin:round;stroke-miterlimit:10"
   id="path8"
   inkscape:connector-curvature="0" />
            <line
   style="fill:none;stroke:#202020;stroke-width:2;stroke-linecap:round;stroke-linejoin:round;stroke-miterlimit:10"
   x1="13"
   x2="51"
   y1="22"
   y2="22"
   id="line10" />
            <path
   d="m 19,14 c 0,-2.21 1.791,-4 4,-4 2.209,0 4,1.79 4,4 0,2.21 -1.791,4 -4,4"
   style="fill:none;stroke:#202020;stroke-width:2;stroke-linecap:round;stroke-linejoin:round;stroke-miterlimit:10"
   id="path12"
   inkscape:connector-curvature="0" />
            <path
   d="m 37,14 c 0,-2.21 1.791,-4 4,-4 2.209,0 4,1.79 4,4 0,2.21 -1.791,4 -4,4"
   style="fill:none;stroke:#202020;stroke-width:2;stroke-linecap:round;stroke-linejoin:round;stroke-miterlimit:10"
   id="path14"
   inkscape:connector-curvature="0" />
        </g>
    </g>
</svg>